<svg width="100" height="107" viewBox="0 0 100 107" fill="none" xmlns="http://www.w3.org/2000/svg">
<path d="M84.7856 15.3786L80.6951 13.0127L80.6889 13.0271L65.2145 4.08222C58.8626 0.400043 51.5132 -0.78279 44.5295 0.499892L44.5221 0.506201L44.5127 0.4835C41.1373 1.09992 37.8283 2.28298 34.7689 4.06585L19.3074 13.0185L19.3049 13.0127L15.2144 15.3785C5.8031 20.8268 3.2718e-05 30.8904 3.2718e-05 41.787V64.4465C7.43303e-06 64.4648 1.11181e-06 64.4831 1.11181e-06 64.5015C-0.00293194 75.3832 5.79757 85.4296 15.2144 90.8714L19.3049 93.2373L19.3111 93.2229L34.7855 102.168C41.1374 105.85 48.4868 107.033 55.4705 105.75L55.4779 105.744L55.4873 105.766C58.8627 105.15 62.1717 103.967 65.2311 102.184L80.6926 93.2314L80.6951 93.2373L84.7856 90.8714C94.1969 85.4232 100 75.3596 100 64.4629V41.8034V41.8024C100 41.7854 100 41.7685 100 41.7515C100.004 30.8686 94.2033 20.8209 84.7856 15.3786Z" fill="url(#paint0_linear)"/>
<path fill-rule="evenodd" clip-rule="evenodd" d="M28.3468 38.92C34.8813 38.0703 43.5349 38.7309 52.7288 41.1614C61.9226 43.592 69.7906 47.2991 75.0809 51.2749C77.729 53.2651 79.6726 55.2787 80.8327 57.177C81.99 59.0706 82.3073 60.7392 81.941 62.1598C81.5747 63.5804 80.4923 64.8789 78.5685 65.958C76.64 67.0397 73.9724 67.8343 70.7013 68.2597C64.1668 69.1094 55.5132 68.4488 46.3194 66.0183C37.1256 63.5877 29.2575 59.8806 23.9673 55.9048C21.3191 53.9146 19.3756 51.901 18.2154 50.0027C17.0582 48.1091 16.7408 46.4405 17.1071 45.0199C17.4735 43.5993 18.5558 42.3008 20.4796 41.2217C22.4081 40.14 25.0758 39.3454 28.3468 38.92ZM19.1106 38.781C16.767 40.0956 15.0251 41.9225 14.4102 44.3069C13.7954 46.6914 14.433 49.1473 15.8428 51.4542C17.2498 53.7564 19.4855 56.0192 22.3047 58.138C27.9492 62.38 36.1684 66.2207 45.6227 68.7201C55.077 71.2195 64.1015 71.9375 71.0736 71.0308C74.5559 70.578 77.5986 69.7106 79.9375 68.3987C82.2811 67.0841 84.0231 65.2572 84.6379 62.8728C85.2528 60.4883 84.6151 58.0324 83.2053 55.7255C81.7983 53.4233 79.5627 51.1605 76.7435 49.0417C71.099 44.7997 62.8797 40.959 53.4254 38.4596C43.9711 35.9602 34.9467 35.2422 27.9746 36.1489C24.4923 36.6017 21.4495 37.4691 19.1106 38.781Z" fill="white"/>
<path fill-rule="evenodd" clip-rule="evenodd" d="M38.4708 76.7032C44.5547 74.1719 51.7187 69.273 58.4655 62.5712C65.2123 55.8693 70.1726 48.7248 72.7662 42.6365C74.0645 39.5889 74.7409 36.8733 74.7964 34.6493C74.8518 32.4307 74.2924 30.8271 73.2649 29.7799C72.2373 28.7328 70.6507 28.1494 68.4451 28.1768C66.2341 28.2043 63.5265 28.85 60.4811 30.1171C54.3971 32.6485 47.2332 37.5474 40.4864 44.2492C33.7396 50.951 28.7792 58.0955 26.1856 64.1838C24.8874 67.2314 24.211 69.9471 24.1554 72.1711C24.1 74.3896 24.6595 75.9933 25.687 77.0404C26.7146 78.0876 28.3012 78.6709 30.5068 78.6435C32.7178 78.6161 35.4253 77.9704 38.4708 76.7032ZM30.5415 81.4417C27.8546 81.4751 25.4326 80.7639 23.7079 79.0063C21.9832 77.2488 21.3074 74.803 21.375 72.1003C21.4423 69.4031 22.247 66.3256 23.6292 63.0811C26.3964 56.5851 31.5942 49.1494 38.5322 42.2577C45.4701 35.366 52.9265 30.232 59.4179 27.5311C62.66 26.1821 65.7289 25.4119 68.4104 25.3786C71.0973 25.3453 73.5193 26.0564 75.244 27.814C76.9686 29.5716 77.6444 32.0173 77.5769 34.72C77.5095 37.4173 76.7048 40.4948 75.3227 43.7393C72.5554 50.2352 67.3577 57.671 60.4197 64.5627C53.4818 71.4543 46.0253 76.5884 39.534 79.2892C36.2918 80.6382 33.223 81.4084 30.5415 81.4417Z" fill="white"/>
<path fill-rule="evenodd" clip-rule="evenodd" d="M64.3311 74.6842C65.1338 68.1029 64.4217 59.3997 61.9472 50.1648C59.4727 40.9299 55.7378 33.0366 51.752 27.7384C49.7567 25.0861 47.7426 23.1432 45.8486 21.9881C43.9587 20.8355 42.3027 20.5299 40.9011 20.9055C39.4995 21.281 38.2182 22.3736 37.1578 24.3168C36.0951 26.2641 35.3223 28.9538 34.9205 32.2484C34.1177 38.8297 34.8299 47.5329 37.3044 56.7678C39.7788 66.0027 43.5137 73.896 47.4996 79.1942C49.4949 81.8465 51.5089 83.7895 53.4029 84.9445C55.2929 86.0971 56.9488 86.4027 58.3504 86.0272C59.7521 85.6516 61.0333 84.559 62.0938 82.6158C63.1565 80.6685 63.9292 77.9788 64.3311 74.6842ZM64.5421 83.9534C63.2515 86.3183 61.4455 88.0868 59.0727 88.7226C56.6998 89.3584 54.2515 88.7298 51.9514 87.327C49.6553 85.9267 47.3934 83.693 45.271 80.8719C41.0215 75.2231 37.1536 66.982 34.6102 57.4897C32.0667 47.9974 31.2958 38.9265 32.1517 31.9098C32.5791 28.4054 33.4211 25.34 34.7095 22.9793C36 20.6144 37.8061 18.8458 40.1789 18.21C42.5517 17.5742 45 18.2028 47.3001 19.6056C49.5963 21.0059 51.8581 23.2396 53.9805 26.0608C58.2301 31.7095 62.0979 39.9506 64.6414 49.4429C67.1848 58.9352 67.9557 68.0061 67.0999 75.0228C66.6724 78.5273 65.8304 81.5926 64.5421 83.9534Z" fill="white"/>
<path d="M54.8977 51.8033C54.084 48.7665 50.9797 46.9597 47.9641 47.7677C44.9485 48.5757 43.1636 51.6926 43.9773 54.7294C44.791 57.7663 47.8953 59.5731 50.9109 58.7651C53.9265 57.957 55.7114 54.8402 54.8977 51.8033Z" fill="white"/>
<defs>
<linearGradient id="paint0_linear" x1="50" y1="0" x2="50" y2="106.25" gradientUnits="userSpaceOnUse">
<stop stop-color="#19B0EC"/>
<stop offset="1" stop-color="#456FE8"/>
</linearGradient>
</defs>
</svg>
